<svg xmlns="http://www.w3.org/2000/svg" height="20" width="20"><path d="M10 17.167q-3 0-5.083-2.084Q2.833 13 2.833 10q0-2.979 2.084-5.083Q7 2.812 10 2.812q.229 0 .469.011.239.01.489.052-.666.667-1.073 1.49-.406.823-.406 1.76 0 1.854 1.281 3.135 1.282 1.282 3.157 1.282.895 0 1.729-.407.833-.406 1.479-1.073.042.25.052.48.011.229.011.458 0 2.979-2.105 5.073-2.104 2.094-5.083 2.094Zm0-2.042q1.396 0 2.604-.74 1.208-.739 1.875-1.989-.312.062-.604.104-.292.042-.563.021-2.333-.209-3.968-1.813-1.636-1.604-1.865-4.041 0-.271.031-.563.032-.292.094-.583-1.229.687-1.979 1.885T4.875 10q0 2.146 1.49 3.635 1.489 1.49 3.635 1.49Zm-.438-4.687Z"/></svg>