<svg xmlns="http://www.w3.org/2000/svg" height="20" width="20"><path d="M5.625 18.271q-.854 0-1.437-.594-.584-.594-.584-1.448V7.208q0-.854.594-1.448.594-.593 1.448-.593h1.083v-.334q.042-1.333.906-2.312.865-.979 2.198-1.042 1.417-.062 2.407.865.989.927 1.031 2.323v.5h1.083q.854 0 1.448.593.594.594.594 1.448v9.021q0 .854-.594 1.448t-1.448.594Zm.021-2.042h8.708V7.208h-1.083v.98q0 .416-.292.718-.291.302-.729.302-.417 0-.719-.302t-.302-.718v-.98H8.771v.98q0 .416-.292.718-.291.302-.729.302-.417 0-.719-.302t-.302-.718v-.98H5.646v9.021ZM8.792 5.167h2.416v-.5q-.02-.479-.375-.813-.354-.333-.833-.333-.5 0-.844.333-.344.334-.364.813ZM5.646 16.229V7.208v9.021Z"/></svg>